<svg id="svg" version="1.1" xmlns="http://www.w3.org/2000/svg" xmlns:xlink="http://www.w3.org/1999/xlink" width="400" height="423.6666666666667" viewBox="0, 0, 400,423.6666666666667"><g id="svgg"><path id="path0" d="M60.333 23.333 L 60.333 45.000 71.501 45.000 L 82.669 45.000 82.585 84.900 L 82.500 124.800 80.000 125.746 C -13.638 161.176,-23.747 239.519,59.676 283.267 C 65.153 286.140,72.389 289.364,78.240 291.540 L 82.614 293.167 82.758 313.833 C 82.914 336.044,82.989 337.203,84.871 346.113 C 93.451 386.751,127.227 415.291,173.667 421.144 C 183.066 422.329,207.337 422.785,219.000 421.997 C 275.308 418.188,314.012 384.008,318.643 334.000 C 318.838 331.892,318.998 323.406,318.999 315.143 L 319.000 300.120 325.583 298.516 C 350.935 292.338,380.992 280.805,393.011 272.643 L 393.781 272.120 379.508 252.810 C 371.657 242.190,365.037 233.286,364.796 233.024 C 364.421 232.617,363.505 232.960,358.429 235.409 C 348.576 240.165,337.213 244.389,325.441 247.673 C 322.723 248.431,320.237 249.125,319.917 249.215 C 319.363 249.370,319.333 247.298,319.333 209.046 L 319.333 168.713 322.417 169.549 C 337.636 173.671,352.248 179.212,362.934 184.912 C 364.822 185.920,366.415 186.689,366.472 186.622 C 366.530 186.555,373.066 177.800,380.996 167.167 C 388.926 156.533,395.555 147.657,395.727 147.441 C 396.106 146.967,392.611 144.840,384.833 140.811 C 368.441 132.321,347.620 124.816,326.124 119.650 C 323.031 118.906,320.237 118.221,319.917 118.127 C 319.366 117.965,319.333 115.930,319.333 81.478 L 319.333 45.000 330.500 45.000 L 341.667 45.000 341.667 23.333 L 341.667 1.667 294.667 1.667 L 247.667 1.667 247.667 23.333 L 247.667 45.000 258.833 45.000 L 270.000 45.000 270.000 77.658 L 270.000 110.317 269.083 110.164 C 264.823 109.452,233.272 107.333,226.932 107.333 L 225.333 107.333 225.333 102.500 L 225.333 97.667 236.667 97.667 L 248.000 97.667 248.000 76.167 L 248.000 54.667 201.000 54.667 L 154.000 54.667 154.000 76.167 L 154.000 97.667 165.167 97.667 L 176.333 97.667 176.333 102.457 L 176.333 107.248 172.583 107.478 C 159.434 108.287,135.798 110.880,132.583 111.866 C 132.030 112.036,132.000 110.295,132.000 78.522 L 132.000 45.000 143.167 45.000 L 154.333 45.000 154.333 23.333 L 154.333 1.667 107.333 1.667 L 60.333 1.667 60.333 23.333 M145.254 23.250 L 145.341 37.000 134.170 37.000 L 123.000 37.000 123.000 75.494 L 123.000 113.987 122.250 114.154 C 121.837 114.246,119.550 114.713,117.167 115.191 C 111.304 116.367,102.184 118.677,96.423 120.446 C 93.814 121.246,91.601 121.824,91.506 121.729 C 91.411 121.633,91.333 102.533,91.333 79.282 L 91.333 37.009 80.250 36.921 L 69.167 36.833 69.079 23.501 C 69.031 16.168,69.064 9.979,69.153 9.749 C 69.281 9.416,77.048 9.348,107.240 9.415 L 145.167 9.500 145.254 23.250 M332.667 23.167 L 332.667 37.000 321.500 37.000 L 310.333 37.000 310.333 76.708 L 310.333 116.417 309.250 116.195 C 304.221 115.166,294.557 113.527,288.500 112.675 C 284.467 112.107,280.679 111.567,280.083 111.473 L 279.000 111.303 279.000 74.156 L 279.000 37.009 267.750 36.921 L 256.500 36.833 256.413 23.501 C 256.365 16.168,256.398 9.980,256.486 9.751 C 256.613 9.420,264.528 9.333,294.656 9.333 L 332.667 9.333 332.667 23.167 M239.000 76.333 L 239.000 90.000 227.833 90.000 L 216.667 90.000 216.667 209.000 L 216.667 328.000 227.833 328.000 L 239.000 328.000 239.000 341.667 L 239.000 355.333 200.830 355.333 L 162.659 355.333 162.746 341.750 L 162.833 328.167 174.083 328.079 L 185.333 327.991 185.333 208.996 L 185.333 90.000 174.000 90.000 L 162.667 90.000 162.667 76.333 L 162.667 62.667 200.833 62.667 L 239.000 62.667 239.000 76.333 M238.500 116.681 C 295.436 119.476,343.403 130.063,378.500 147.580 C 381.250 148.952,383.546 150.116,383.601 150.167 C 383.673 150.231,365.927 174.251,364.786 175.635 C 364.724 175.709,362.835 174.899,360.587 173.834 C 329.706 159.209,283.174 149.837,231.000 147.735 L 225.167 147.500 225.080 132.167 C 225.032 123.733,225.066 116.643,225.155 116.409 C 225.278 116.091,226.084 116.029,228.409 116.161 C 230.109 116.258,234.650 116.492,238.500 116.681 M176.667 131.972 L 176.667 147.610 174.250 147.803 C 172.921 147.909,169.883 148.150,167.500 148.338 C 107.465 153.085,59.472 172.712,46.439 197.845 C 29.719 230.088,90.398 265.111,171.167 269.836 C 173.000 269.944,174.987 270.106,175.583 270.197 L 176.667 270.364 176.667 286.015 C 176.667 300.700,176.631 301.666,176.083 301.663 C 162.528 301.587,130.946 297.176,112.667 292.807 C 21.169 270.936,-15.294 211.567,33.544 163.979 C 59.847 138.349,108.277 121.128,165.667 116.997 C 168.508 116.792,171.208 116.582,171.667 116.529 C 172.125 116.476,173.438 116.411,174.583 116.383 L 176.667 116.333 176.667 131.972 M238.500 157.025 C 245.880 157.461,259.317 158.554,264.948 159.176 C 267.395 159.446,269.533 159.667,269.698 159.667 C 269.877 159.667,270.000 179.782,270.000 208.954 L 270.000 258.242 268.083 258.469 C 258.447 259.610,243.808 260.805,235.167 261.157 C 232.600 261.262,229.338 261.429,227.917 261.530 L 225.333 261.712 225.333 208.986 L 225.333 156.260 229.083 156.475 C 231.146 156.593,235.383 156.840,238.500 157.025 M176.333 209.036 L 176.333 261.405 172.917 261.178 C 162.434 260.480,147.097 258.615,137.043 256.816 C 134.545 256.369,132.387 256.002,132.250 256.001 C 132.112 256.001,132.000 234.861,132.000 209.024 L 132.000 162.047 133.750 161.689 C 143.800 159.633,164.859 157.098,175.083 156.714 L 176.333 156.667 176.333 209.036 M287.667 161.820 C 291.608 162.453,297.908 163.597,301.667 164.364 C 305.425 165.130,308.912 165.828,309.417 165.916 L 310.333 166.076 310.333 208.871 C 310.333 232.409,310.236 251.667,310.118 251.667 C 309.999 251.667,307.419 252.201,304.384 252.853 C 301.349 253.506,294.883 254.705,290.016 255.517 C 285.149 256.329,280.679 257.077,280.083 257.178 L 279.000 257.364 279.000 208.895 L 279.000 160.426 279.750 160.547 C 280.162 160.614,283.725 161.187,287.667 161.820 M123.000 208.980 C 123.000 233.720,122.887 254.029,122.750 254.113 C 121.973 254.586,100.688 247.994,94.167 245.261 L 91.500 244.143 91.500 209.029 L 91.500 173.915 95.565 172.320 C 103.228 169.314,120.059 164.079,122.250 164.020 L 123.000 164.000 123.000 208.980 M82.667 209.171 L 82.667 239.676 80.605 238.635 C 68.051 232.298,56.091 221.396,52.974 213.448 C 49.376 204.274,58.954 191.887,78.060 181.006 C 80.319 179.719,82.279 178.667,82.417 178.667 C 82.554 178.667,82.667 192.394,82.667 209.171 M372.267 256.094 L 381.701 268.833 376.463 271.408 C 340.825 288.926,283.646 300.744,229.667 301.750 L 225.167 301.833 225.080 286.277 L 224.993 270.720 227.080 270.541 C 228.228 270.442,232.692 270.199,237.000 270.000 C 284.449 267.814,329.014 258.689,358.248 245.174 C 360.403 244.178,362.317 243.361,362.500 243.359 C 362.683 243.357,367.079 249.087,372.267 256.094 M97.508 297.841 C 105.057 300.007,121.459 304.000,122.811 304.000 C 122.915 304.000,123.000 309.009,123.000 315.131 C 123.000 333.448,124.151 340.099,129.005 349.833 C 137.701 367.275,154.254 377.802,178.333 381.206 C 183.441 381.929,211.698 382.259,218.161 381.672 C 249.071 378.865,270.598 363.882,276.835 340.833 C 278.561 334.455,278.746 332.571,278.962 319.185 L 279.167 306.537 285.000 305.765 C 290.649 305.017,308.033 302.204,309.611 301.782 L 310.389 301.574 310.247 317.871 C 310.121 332.332,310.027 334.657,309.410 338.523 C 302.833 379.744,271.953 406.832,224.667 412.860 C 214.527 414.152,184.293 413.845,173.667 412.342 C 127.234 405.773,95.772 375.203,92.011 333.000 C 91.592 328.300,91.549 296.333,91.961 296.333 C 92.123 296.333,94.619 297.012,97.508 297.841 M137.106 306.657 C 146.402 308.148,162.348 309.805,171.294 310.208 L 176.333 310.436 176.333 315.218 L 176.333 320.000 165.167 320.000 L 154.000 320.000 154.000 341.667 L 154.000 363.333 201.000 363.333 L 248.000 363.333 248.000 341.667 L 248.000 320.000 236.667 320.000 L 225.333 320.000 225.333 315.333 L 225.333 310.667 228.250 310.665 C 234.072 310.662,253.585 309.447,263.333 308.480 C 265.992 308.217,268.595 308.001,269.119 308.001 L 270.071 308.000 269.904 319.417 C 269.760 329.197,269.639 331.287,269.060 334.000 C 264.592 354.919,249.475 368.013,225.183 372.006 C 216.153 373.491,189.823 373.787,180.000 372.516 C 151.767 368.860,134.370 353.224,132.009 329.381 C 131.324 322.473,131.557 306.000,132.339 306.000 C 132.709 306.000,134.854 306.296,137.106 306.657 " stroke="none" fill="#fbcb2b" fill-rule="evenodd"></path><path id="path1" d="M69.333 23.167 L 69.333 36.667 80.500 36.667 L 91.667 36.667 91.667 79.202 C 91.667 117.392,91.719 121.718,92.181 121.541 C 95.737 120.176,111.948 115.971,118.750 114.650 L 122.667 113.888 122.667 75.444 L 122.667 37.000 133.833 37.000 L 145.000 37.000 145.000 23.333 L 145.000 9.667 107.167 9.667 L 69.333 9.667 69.333 23.167 M256.667 23.167 L 256.667 36.667 267.832 36.667 L 278.997 36.667 279.082 73.902 L 279.167 111.138 286.748 112.216 C 290.918 112.808,297.368 113.839,301.081 114.506 C 304.795 115.174,308.396 115.803,309.083 115.904 L 310.333 116.088 310.333 76.544 L 310.333 37.000 321.500 37.000 L 332.667 37.000 332.667 23.333 L 332.667 9.667 294.667 9.667 L 256.667 9.667 256.667 23.167 M163.000 76.167 L 163.000 89.667 174.167 89.667 L 185.333 89.667 185.333 209.000 L 185.333 328.333 174.167 328.333 L 163.000 328.333 163.000 341.833 L 163.000 355.333 201.000 355.333 L 239.000 355.333 239.000 341.833 L 239.000 328.333 227.666 328.333 L 216.332 328.333 216.416 209.083 L 216.500 89.833 227.750 89.746 L 239.000 89.658 239.000 76.162 L 239.000 62.667 201.000 62.667 L 163.000 62.667 163.000 76.167 M169.667 116.859 C 129.016 119.779,95.200 127.730,68.481 140.648 C -22.276 184.531,-0.147 264.588,110.318 292.001 C 129.597 296.785,160.974 301.333,174.702 301.333 L 176.333 301.333 176.333 285.873 L 176.333 270.413 172.750 270.188 C 119.018 266.815,74.341 251.785,53.667 230.126 C 39.310 215.086,39.850 201.263,55.385 186.155 C 76.788 165.340,120.254 151.121,172.833 147.736 L 176.500 147.500 176.587 131.917 C 176.655 119.544,176.587 116.342,176.253 116.374 C 176.022 116.397,173.058 116.615,169.667 116.859 M225.333 131.748 L 225.333 147.258 230.083 147.478 C 285.833 150.061,332.665 159.562,361.688 174.177 C 362.950 174.813,364.175 175.327,364.408 175.319 C 364.791 175.306,382.817 151.532,383.199 150.536 C 383.390 150.038,373.338 145.092,365.599 141.876 C 330.326 127.216,285.060 118.676,230.917 116.466 L 225.333 116.238 225.333 131.748 M279.000 208.865 L 279.000 257.063 280.750 256.831 C 287.097 255.993,304.984 252.714,309.083 251.636 L 310.333 251.308 310.333 208.847 L 310.333 166.387 308.022 165.861 C 302.076 164.509,280.873 160.682,279.250 160.669 C 279.112 160.668,279.000 182.356,279.000 208.865 M121.333 164.409 C 113.158 166.402,103.043 169.568,96.082 172.312 L 91.664 174.054 91.748 209.075 L 91.833 244.097 95.500 245.570 C 102.426 248.353,122.058 254.386,122.559 253.886 C 122.619 253.825,122.631 233.604,122.585 208.950 L 122.500 164.124 121.333 164.409 M357.049 245.889 C 326.401 259.708,281.474 268.497,231.083 270.532 L 225.333 270.765 225.333 286.268 L 225.333 301.771 231.750 301.541 C 280.549 299.798,327.389 291.291,360.833 278.098 C 367.825 275.340,380.390 269.636,381.290 268.810 C 381.390 268.719,364.048 245.240,362.833 243.821 C 362.587 243.532,361.084 244.069,357.049 245.889 M92.000 313.957 C 92.000 327.301,92.118 332.511,92.492 335.707 C 97.485 378.393,131.143 408.196,179.598 412.838 C 186.943 413.541,215.132 413.534,222.530 412.826 C 273.211 407.979,307.029 376.087,310.005 330.333 C 310.392 324.390,310.436 302.000,310.061 302.000 C 309.912 302.000,305.374 302.739,299.978 303.642 C 294.582 304.545,287.666 305.618,284.609 306.026 L 279.052 306.769 278.906 320.134 C 278.702 338.743,277.051 345.545,270.311 355.533 C 256.317 376.271,229.003 384.794,185.500 381.998 C 151.845 379.835,130.250 363.777,124.088 336.333 C 123.259 332.643,123.220 331.973,123.030 318.374 L 122.833 304.248 116.500 302.826 C 108.532 301.037,102.075 299.396,96.417 297.719 L 92.000 296.410 92.000 313.957 " stroke="none" fill="#041c3c" fill-rule="evenodd"></path><path id="path2" d="M145.152 23.167 C 145.152 30.683,145.196 33.806,145.250 30.106 C 145.303 26.405,145.303 20.255,145.250 16.439 C 145.196 12.623,145.152 15.650,145.152 23.167 M168.395 89.916 C 171.454 89.971,176.554 89.971,179.729 89.916 C 182.903 89.861,180.400 89.816,174.167 89.816 C 167.933 89.816,165.336 89.861,168.395 89.916 M222.062 89.916 C 225.121 89.971,230.221 89.971,233.395 89.916 C 236.570 89.861,234.067 89.816,227.833 89.816 C 221.600 89.816,219.003 89.861,222.062 89.916 M228.417 147.563 C 228.737 147.647,229.262 147.647,229.583 147.563 C 229.904 147.479,229.642 147.411,229.000 147.411 C 228.358 147.411,228.096 147.479,228.417 147.563 M235.750 147.896 C 236.071 147.980,236.596 147.980,236.917 147.896 C 237.237 147.813,236.975 147.744,236.333 147.744 C 235.692 147.744,235.429 147.813,235.750 147.896 M31.000 251.500 C 31.622 252.142,32.206 252.667,32.297 252.667 C 32.389 252.667,31.955 252.142,31.333 251.500 C 30.711 250.858,30.128 250.333,30.036 250.333 C 29.944 250.333,30.378 250.858,31.000 251.500 M33.333 253.771 C 33.333 253.828,33.821 254.316,34.417 254.854 L 35.500 255.833 34.521 254.750 C 33.608 253.740,33.333 253.513,33.333 253.771 M230.417 270.563 C 230.737 270.647,231.262 270.647,231.583 270.563 C 231.904 270.479,231.642 270.411,231.000 270.411 C 230.358 270.411,230.096 270.479,230.417 270.563 M91.821 312.333 C 91.821 321.225,91.864 324.862,91.916 320.417 C 91.969 315.971,91.969 308.696,91.916 304.250 C 91.864 299.804,91.821 303.442,91.821 312.333 M310.084 328.500 C 310.088 329.233,310.156 329.494,310.236 329.079 C 310.315 328.665,310.312 328.065,310.229 327.746 C 310.146 327.427,310.080 327.767,310.084 328.500 M194.750 382.250 C 198.188 382.304,203.813 382.304,207.250 382.250 C 210.688 382.195,207.875 382.151,201.000 382.151 C 194.125 382.151,191.313 382.195,194.750 382.250 M195.272 413.583 C 198.629 413.637,204.029 413.637,207.272 413.583 C 210.514 413.528,207.767 413.484,201.167 413.484 C 194.567 413.484,191.914 413.529,195.272 413.583 " stroke="none" fill="#5e5a35" fill-rule="evenodd"></path><path id="path3" d="M168.395 328.249 C 171.454 328.304,176.554 328.304,179.729 328.250 C 182.903 328.195,180.400 328.150,174.167 328.150 C 167.933 328.150,165.336 328.194,168.395 328.249 M222.062 328.249 C 225.121 328.304,230.221 328.304,233.395 328.250 C 236.570 328.195,234.067 328.150,227.833 328.150 C 221.600 328.150,219.003 328.194,222.062 328.249 " stroke="none" fill="#7c7434" fill-rule="evenodd"></path><path id="path4" d="M69.152 9.751 C 69.064 9.980,69.031 16.168,69.079 23.501 L 69.167 36.833 80.250 36.921 L 91.333 37.009 91.333 79.318 C 91.333 102.588,91.446 121.697,91.583 121.782 C 91.721 121.867,91.758 102.788,91.667 79.385 L 91.500 36.833 80.417 36.746 L 69.333 36.658 69.333 23.164 L 69.333 9.670 107.250 9.583 L 145.167 9.497 107.240 9.415 C 77.118 9.350,69.279 9.419,69.152 9.751 M256.486 9.751 C 256.398 9.980,256.365 16.168,256.413 23.501 L 256.500 36.833 267.667 36.840 L 278.833 36.847 267.750 36.752 L 256.667 36.658 256.667 23.164 L 256.667 9.669 294.750 9.583 L 332.833 9.497 294.740 9.415 C 264.484 9.350,256.613 9.419,256.486 9.751 M122.828 75.500 C 122.828 96.767,122.868 105.516,122.917 94.942 C 122.965 84.369,122.965 66.969,122.917 56.276 C 122.868 45.582,122.828 54.233,122.828 75.500 M162.819 76.333 C 162.819 83.942,162.863 87.054,162.916 83.250 C 162.970 79.446,162.970 73.221,162.916 69.417 C 162.863 65.613,162.819 68.725,162.819 76.333 M216.498 209.000 C 216.498 274.542,216.536 301.354,216.583 268.583 C 216.630 235.813,216.630 182.188,216.583 149.417 C 216.536 116.646,216.498 143.458,216.498 209.000 M225.153 116.417 C 225.065 116.646,225.032 123.733,225.080 132.167 L 225.167 147.500 226.167 147.531 C 227.110 147.560,227.115 147.554,226.250 147.427 L 225.333 147.291 225.333 131.832 L 225.333 116.374 226.583 116.243 L 227.833 116.112 226.573 116.056 C 225.826 116.023,225.247 116.170,225.153 116.417 M234.083 116.563 C 234.404 116.647,234.929 116.647,235.250 116.563 C 235.571 116.479,235.308 116.411,234.667 116.411 C 234.025 116.411,233.762 116.479,234.083 116.563 M122.667 209.067 C 122.575 233.945,122.613 254.187,122.751 254.049 C 122.889 253.911,122.964 233.556,122.918 208.815 L 122.833 163.833 122.667 209.067 M91.487 174.083 C 91.400 174.313,91.367 190.175,91.414 209.333 L 91.500 244.167 91.667 208.917 C 91.758 189.529,91.791 173.667,91.740 173.667 C 91.688 173.667,91.574 173.854,91.487 174.083 M11.779 209.000 C 11.779 210.375,11.838 210.938,11.909 210.250 C 11.981 209.563,11.981 208.438,11.909 207.750 C 11.838 207.063,11.779 207.625,11.779 209.000 M235.083 270.230 C 235.404 270.314,235.929 270.314,236.250 270.230 C 236.571 270.146,236.308 270.077,235.667 270.077 C 235.025 270.077,234.762 270.146,235.083 270.230 M176.487 286.000 C 176.487 294.708,176.530 298.271,176.583 293.917 C 176.636 289.563,176.636 282.438,176.583 278.083 C 176.530 273.729,176.487 277.292,176.487 286.000 M227.587 270.569 C 228.002 270.649,228.602 270.646,228.921 270.562 C 229.239 270.479,228.900 270.414,228.167 270.417 C 227.433 270.421,227.173 270.489,227.587 270.569 M225.154 286.167 C 225.154 294.783,225.197 298.356,225.250 294.106 C 225.302 289.856,225.302 282.806,225.250 278.440 C 225.197 274.073,225.154 277.550,225.154 286.167 M228.254 301.902 C 228.669 301.982,229.269 301.979,229.587 301.896 C 229.906 301.812,229.567 301.747,228.833 301.751 C 228.100 301.754,227.839 301.823,228.254 301.902 M162.819 341.833 C 162.819 349.350,162.863 352.473,162.916 348.772 C 162.970 345.072,162.970 338.922,162.916 335.106 C 162.863 331.289,162.819 334.317,162.819 341.833 M285.812 385.417 L 284.833 386.500 285.917 385.521 C 286.512 384.983,287.000 384.495,287.000 384.438 C 287.000 384.180,286.725 384.407,285.812 385.417 M186.587 413.569 C 187.002 413.649,187.602 413.646,187.921 413.562 C 188.239 413.479,187.900 413.414,187.167 413.417 C 186.433 413.421,186.173 413.489,186.587 413.569 M214.254 413.569 C 214.669 413.649,215.269 413.646,215.587 413.562 C 215.906 413.479,215.567 413.414,214.833 413.417 C 214.100 413.421,213.839 413.489,214.254 413.569 " stroke="none" fill="#847434" fill-rule="evenodd"></path></g></svg>